<svg width="552" height="526" viewBox="0 0 552 526" fill="none" xmlns="http://www.w3.org/2000/svg">
<path d="M528.088 211.153C533.56 213.287 537.629 217.953 539.011 223.62L539.136 224.172C540.382 230.096 538.549 236.252 534.27 240.532L316.247 458.55C305.442 469.353 289.283 472.749 275.043 467.214L249.85 457.415V448.683L280.524 460.613L280.532 460.616L280.54 460.62C290.224 464.37 301.199 462.063 308.548 454.733L308.553 454.728L308.558 454.723L517.082 246.214L517.081 246.213C521.966 241.329 523.991 234.336 522.602 227.668L522.6 227.661L522.458 227.033C520.995 220.996 516.847 215.986 511.257 213.392V204.611L528.088 211.153Z" stroke="#E8E2E2" stroke-width="23"/>
<path d="M263.072 23.5068C273.866 12.6417 290.08 9.20542 304.359 14.7568V14.7559L509.933 94.7031L509.939 94.7051C515.56 96.8872 519.711 101.767 520.965 107.687V107.688C522.217 113.589 520.405 119.74 516.143 124.026L516.14 124.029L316.221 325.26C305.414 336.126 289.21 339.559 274.934 334.009L68.0991 253.565L66.395 252.902L64.5679 252.801C56.4455 252.35 49.2514 254.437 43.2603 258.575C37.443 262.594 33.3465 268.132 30.4399 273.791C24.7359 284.897 22.5944 298.479 21.8267 309.177L21.8257 309.183C21.001 320.76 20.4344 332.555 22.187 342.279C23.9966 352.32 28.8424 362.802 40.7944 367.375V367.376L74.269 380.397C74.2095 381.449 74.1782 382.515 74.1782 383.592L74.1782 389.102L34.0757 373.507L34.3696 372.592C23.9421 368.3 18.4583 360.912 15.3267 351.353C12.0064 341.217 11.5288 329.165 11.5288 316.649C11.5288 304.835 12.7176 292.742 15.8413 282.106C18.9699 271.455 23.8189 262.987 30.6304 257.382L31.0757 257.016L31.481 256.607L263.072 23.5068Z" stroke="#E8E2E2" stroke-width="23"/>
<path d="M215.153 392.196L210.103 397.25C203.548 403.804 199.862 412.688 199.862 421.975V500.048L164.158 468.907L159.819 465.124L154.191 466.329L124.167 472.758V383.588C124.167 380.442 125.417 377.394 127.684 375.117L139.88 362.925L215.153 392.196Z" stroke="#E8E2E2" stroke-width="23"/>
</svg>
