<svg width="622" height="677" viewBox="0 0 622 677" fill="none" xmlns="http://www.w3.org/2000/svg">
<path d="M373.998 665.431C244.898 700.031 90.0985 647.264 7.99849 544.364C4.14099 539.527 1.70593 533.711 0.965886 527.569C0.225842 521.426 1.21001 515.198 3.80825 509.583C6.40648 503.968 10.5162 499.187 15.6775 495.775C20.8387 492.363 26.8477 490.455 33.0318 490.264C165.832 486.331 255.098 440.764 305.365 353.664C355.698 266.564 350.498 166.464 287.532 49.4973C284.595 44.0454 283.235 37.8831 283.604 31.7015C283.973 25.5199 286.057 19.5633 289.622 14.4997C293.187 9.4361 298.092 5.46569 303.787 3.03366C309.482 0.601636 315.742 -0.195836 321.865 0.730662C451.998 20.3973 575.098 128.064 609.698 257.197C657.365 434.997 551.798 617.797 373.998 665.431Z" fill="white"/>
</svg>
