<svg width="29" height="19" viewBox="0 0 29 19" fill="none" xmlns="http://www.w3.org/2000/svg">
<path d="M3.16158 18.1055H0.945668L7.35476 0.650923H9.53658L15.9457 18.1055H13.7298L8.51385 3.41229H8.37749L3.16158 18.1055ZM3.97976 11.2873H12.9116V13.1623H3.97976V11.2873ZM22.244 18.4123C21.4144 18.4123 20.6616 18.256 19.9854 17.9435C19.3093 17.6254 18.7724 17.168 18.3746 16.5714C17.9769 15.9691 17.7781 15.2418 17.7781 14.3896C17.7781 13.6396 17.9258 13.0316 18.2212 12.5657C18.5167 12.0941 18.9116 11.7248 19.4059 11.4577C19.9002 11.1907 20.4457 10.9918 21.0423 10.8612C21.6445 10.7248 22.2496 10.6168 22.8576 10.5373C23.6531 10.435 24.2979 10.3583 24.7923 10.3072C25.2923 10.2504 25.6559 10.1566 25.8832 10.0259C26.1161 9.89524 26.2326 9.66797 26.2326 9.3441V9.27592C26.2326 8.43501 26.0025 7.7816 25.5423 7.3157C25.0877 6.84979 24.3974 6.61683 23.4712 6.61683C22.511 6.61683 21.7582 6.82706 21.2127 7.24751C20.6673 7.66797 20.2837 8.11683 20.0621 8.5941L18.1531 7.91229C18.494 7.11683 18.9485 6.49751 19.5167 6.05433C20.0906 5.60547 20.7156 5.29297 21.3917 5.11683C22.0735 4.93501 22.744 4.84411 23.4031 4.84411C23.8235 4.84411 24.3065 4.89524 24.8519 4.99751C25.4031 5.0941 25.9343 5.29581 26.4457 5.60263C26.9627 5.90945 27.3917 6.37251 27.7326 6.99183C28.0735 7.61115 28.244 8.4407 28.244 9.48047V18.1055H26.2326V16.3327H26.1303C25.994 16.6168 25.7667 16.9208 25.4485 17.2447C25.1303 17.5685 24.707 17.8441 24.1786 18.0714C23.6502 18.2987 23.0053 18.4123 22.244 18.4123ZM22.5508 16.6055C23.3462 16.6055 24.0167 16.4492 24.5621 16.1367C25.1133 15.8242 25.5281 15.4208 25.8065 14.9265C26.0906 14.4322 26.2326 13.9123 26.2326 13.3668V11.5259C26.1474 11.6282 25.9599 11.7219 25.6701 11.8072C25.386 11.8867 25.0565 11.9577 24.6815 12.0202C24.3121 12.0771 23.9513 12.1282 23.5991 12.1737C23.2525 12.2134 22.9712 12.2475 22.7553 12.2759C22.2326 12.3441 21.744 12.4549 21.2894 12.6083C20.8406 12.756 20.4769 12.9805 20.1985 13.2816C19.9258 13.5771 19.7894 13.9805 19.7894 14.4918C19.7894 15.1907 20.0479 15.7191 20.565 16.0771C21.0877 16.4293 21.7496 16.6055 22.5508 16.6055Z" fill="white"/>
</svg>
