<svg width="28" height="17" viewBox="0 0 28 17" fill="none" xmlns="http://www.w3.org/2000/svg">
<path d="M14.1936 16.0547H12.3456L10.6656 11.5187H3.65764L1.97764 16.0547H0.153637L6.15364 0.214687H8.21764L14.1936 16.0547ZM4.25764 9.88669H10.0656L7.16164 1.89469L4.25764 9.88669ZM23.5302 8.25469C23.5302 7.34269 23.2902 6.63069 22.8102 6.11869C22.3302 5.59069 21.6502 5.32669 20.7702 5.32669C19.9702 5.32669 19.2902 5.51869 18.7302 5.90269C18.1702 6.27069 17.7542 6.86269 17.4822 7.67869L16.0662 6.81469C16.3862 5.90269 16.9542 5.17469 17.7702 4.63069C18.6022 4.08669 19.6182 3.81469 20.8182 3.81469C21.6662 3.81469 22.4182 3.96669 23.0742 4.27069C23.7462 4.55869 24.2742 5.00669 24.6582 5.61469C25.0582 6.22269 25.2582 6.99069 25.2582 7.91869V13.7747C25.2582 14.4307 25.5622 14.7587 26.1702 14.7587C26.2982 14.7587 26.4422 14.7507 26.6022 14.7347C26.7622 14.7027 26.8982 14.6627 27.0102 14.6147L26.9142 15.9827C26.7862 16.0467 26.6182 16.1027 26.4102 16.1507C26.2182 16.1987 25.9942 16.2227 25.7382 16.2227C25.3222 16.2227 24.9382 16.1427 24.5862 15.9827C24.2502 15.8067 23.9782 15.5427 23.7702 15.1907C23.5782 14.8227 23.4822 14.3667 23.4822 13.8227V13.4867L23.9142 13.5347C23.7382 14.1587 23.4262 14.6787 22.9782 15.0947C22.5462 15.4947 22.0422 15.7987 21.4662 16.0067C20.9062 16.1987 20.3382 16.2947 19.7622 16.2947C18.7222 16.2947 17.8342 16.0307 17.0982 15.5027C16.3622 14.9587 15.9942 14.1507 15.9942 13.0787C15.9942 12.2147 16.2662 11.4947 16.8102 10.9187C17.3702 10.3267 18.1862 9.91869 19.2582 9.69469L23.8422 8.73469V10.1747L20.0742 10.9907C19.2902 11.1507 18.7062 11.3827 18.3222 11.6867C17.9382 11.9907 17.7462 12.4227 17.7462 12.9827C17.7462 13.5267 17.9382 13.9667 18.3222 14.3027C18.7222 14.6227 19.2902 14.7827 20.0262 14.7827C20.4582 14.7827 20.8822 14.7267 21.2982 14.6147C21.7142 14.4867 22.0902 14.2947 22.4262 14.0387C22.7622 13.7827 23.0262 13.4627 23.2182 13.0787C23.4262 12.6787 23.5302 12.2067 23.5302 11.6627V8.25469Z" fill="white"/>
</svg>
