<svg width="29" height="19" viewBox="0 0 29 19" fill="none" xmlns="http://www.w3.org/2000/svg">
<path d="M17.3645 17.8289H11.3885V17.0129C12.1085 17.0129 12.6285 16.9649 12.9485 16.8689C13.2845 16.7729 13.4925 16.6289 13.5725 16.4369C13.5885 16.4209 13.5965 16.3729 13.5965 16.2929C13.5965 16.2129 13.5805 16.1329 13.5485 16.0529C13.5165 15.9569 13.4845 15.8609 13.4525 15.7649C13.3885 15.6369 13.3245 15.5089 13.2605 15.3809C13.2125 15.2369 13.1565 15.0929 13.0925 14.9489C12.9165 14.4209 12.7325 13.9009 12.5405 13.3889C12.3485 12.8769 12.1645 12.3649 11.9885 11.8529H5.41254C5.22054 12.4289 5.02054 13.0049 4.81254 13.5809C4.62054 14.1569 4.42854 14.7409 4.23654 15.3329C4.15654 15.4929 4.10054 15.6449 4.06854 15.7889C4.05254 15.9169 4.04454 16.0369 4.04454 16.1489C4.04454 16.3409 4.08454 16.4769 4.16454 16.5569C4.30854 16.8609 4.96454 17.0129 6.13254 17.0129V17.8289H0.972539V17.0129C1.38854 17.0129 1.72454 16.9569 1.98054 16.8449C2.25254 16.7489 2.50054 16.5649 2.72454 16.2929C2.83654 16.1489 2.94054 15.9649 3.03654 15.7409C3.13254 15.5169 3.23654 15.2689 3.34854 14.9969C3.44454 14.7249 3.61254 14.2369 3.85254 13.5329C4.10854 12.8289 4.39654 12.0129 4.71654 11.0849C5.03654 10.1569 5.38054 9.18087 5.74854 8.15687C6.11654 7.13287 6.46054 6.15687 6.78054 5.22887C7.10054 4.30087 7.38054 3.48487 7.62054 2.78087C7.87654 2.07687 8.05254 1.58887 8.14854 1.31687C8.35654 1.20487 8.56454 1.10087 8.77254 1.00487C8.98054 0.892874 9.18854 0.780874 9.39654 0.668874C10.3565 3.16487 11.3005 5.63687 12.2285 8.08487C13.1565 10.5169 14.1005 12.9809 15.0605 15.4769C15.2685 16.0209 15.5165 16.4129 15.8045 16.6529C16.1405 16.8929 16.6605 17.0129 17.3645 17.0129V17.8289ZM11.6765 10.8929C11.1645 9.53287 10.6445 8.17287 10.1165 6.81287C9.60454 5.45287 9.09254 4.09287 8.58054 2.73287C8.10054 4.09287 7.62054 5.45287 7.14054 6.81287C6.67654 8.17287 6.20454 9.53287 5.72454 10.8929H11.6765ZM20.1326 7.22087C21.0926 6.77287 22.1966 6.54887 23.4446 6.54887C24.4526 6.54887 25.2686 6.81287 25.8926 7.34087C26.5646 7.94887 26.9006 8.79687 26.9006 9.88487V16.1009C26.9006 16.1809 26.9006 16.2769 26.9006 16.3889C26.9166 16.5009 26.9326 16.6129 26.9486 16.7249C26.9806 16.8369 27.0206 16.9329 27.0686 17.0129C27.1326 17.0929 27.2046 17.1329 27.2846 17.1329C27.5246 17.1329 27.8686 16.9569 28.3166 16.6049L28.6046 16.9649C27.9006 17.8129 27.2766 18.2369 26.7326 18.2369C26.0286 18.2369 25.6046 17.7889 25.4606 16.8929C24.4686 17.7889 23.2046 18.2369 21.6686 18.2369C21.1406 18.2369 20.6606 18.1809 20.2286 18.0689C19.8126 17.9569 19.4606 17.7809 19.1726 17.5409C18.5806 17.0449 18.2846 16.3489 18.2846 15.4529C18.2846 14.7809 18.5086 14.1809 18.9566 13.6529C19.4206 13.1089 20.0126 12.6609 20.7326 12.3089C21.9646 11.6689 23.5326 11.2289 25.4366 10.9889V9.50087C25.4366 8.87687 25.2446 8.37287 24.8606 7.98887C24.6366 7.76487 24.3726 7.60487 24.0686 7.50887C23.7806 7.41287 23.4686 7.36487 23.1326 7.36487C22.4926 7.36487 21.9486 7.49287 21.5006 7.74887C21.2286 7.92487 21.0126 8.10087 20.8526 8.27687C20.6926 8.43687 20.6126 8.62087 20.6126 8.82887V8.94887C20.6126 9.73287 20.2686 10.1249 19.5806 10.1249C18.9566 10.1249 18.6446 9.76487 18.6446 9.04487C18.6446 8.29287 19.1406 7.68487 20.1326 7.22087ZM25.4366 11.9009C24.0286 12.0449 22.7246 12.4449 21.5246 13.1009C20.4366 13.7089 19.8926 14.4849 19.8926 15.4289C19.8926 15.9409 20.1006 16.3569 20.5166 16.6769C20.9326 16.9809 21.4526 17.1329 22.0766 17.1329C22.6526 17.1329 23.2526 17.0209 23.8766 16.7969C24.3886 16.6209 24.9086 16.3169 25.4366 15.8849V11.9009Z" fill="white"/>
</svg>
