<svg width="29" height="18" viewBox="0 0 29 18" fill="none" xmlns="http://www.w3.org/2000/svg">
<path d="M4.84403 16.1572V16.7812H0.284031V16.1572L1.58003 16.0132C1.75603 15.9972 1.88403 15.9733 1.96403 15.9412C2.04403 15.8932 2.11603 15.7972 2.18003 15.6532C2.26003 15.4932 2.35603 15.2212 2.46803 14.8372L7.10003 0.46125H8.61203L13.292 14.8372C13.404 15.2212 13.492 15.4932 13.556 15.6532C13.636 15.7972 13.716 15.8932 13.796 15.9412C13.876 15.9733 13.996 15.9972 14.156 16.0132L15.476 16.1572V16.7812H9.64403V16.1572L10.964 16.0132C11.22 15.9812 11.356 15.9172 11.372 15.8212C11.404 15.7092 11.332 15.3812 11.156 14.8372L10.172 11.7652H4.31603L3.33203 14.8372C3.15603 15.3812 3.07603 15.7092 3.09203 15.8212C3.12403 15.9172 3.26803 15.9812 3.52403 16.0132L4.84403 16.1572ZM4.55603 10.9972H9.93203L7.24403 2.64525L4.55603 10.9972ZM26.1303 16.9493C24.8823 16.9493 24.1463 16.3732 23.9223 15.2212C23.3623 15.8612 22.7463 16.3252 22.0743 16.6132C21.4023 16.8853 20.7383 17.0213 20.0823 17.0213C18.9623 17.0213 18.1383 16.7093 17.6103 16.0852C17.0823 15.4612 16.8183 14.7092 16.8183 13.8292C16.8183 12.8852 17.1383 12.1412 17.7783 11.5972C18.4343 11.0372 19.5623 10.7572 21.1623 10.7572H23.8743V8.81325C23.8743 7.53325 23.6503 6.65325 23.2023 6.17325C22.7703 5.67725 22.1783 5.42925 21.4263 5.42925C20.9463 5.42925 20.5143 5.52525 20.1303 5.71725C19.7463 5.90925 19.4663 6.26125 19.2903 6.77325C19.1303 7.26925 19.1143 7.99725 19.2423 8.95725L17.3463 8.66925C17.2663 7.91725 17.3623 7.24525 17.6343 6.65325C17.9223 6.04525 18.3863 5.56525 19.0263 5.21325C19.6823 4.84525 20.4983 4.66125 21.4743 4.66125C22.6423 4.66125 23.5383 4.86125 24.1623 5.26125C24.7863 5.64525 25.2183 6.14925 25.4583 6.77325C25.7143 7.39725 25.8423 8.07725 25.8423 8.81325V14.2132C25.8423 15.0292 25.9303 15.5412 26.1063 15.7492C26.2983 15.9572 26.5063 16.0612 26.7303 16.0612C26.8743 16.0612 27.0263 16.0292 27.1863 15.9652C27.3463 15.8852 27.5223 15.7652 27.7143 15.6052L28.1463 16.2052C27.9063 16.4132 27.6183 16.5892 27.2823 16.7332C26.9623 16.8773 26.5783 16.9493 26.1303 16.9493ZM20.7543 16.0132C21.2023 16.0132 21.6823 15.8932 22.1943 15.6532C22.7223 15.3972 23.2823 14.8932 23.8743 14.1412V11.5252H21.4263C20.5303 11.5252 19.8743 11.7092 19.4583 12.0772C19.0583 12.4292 18.8583 12.9812 18.8583 13.7332C18.8583 14.4532 19.0103 15.0132 19.3143 15.4132C19.6343 15.8132 20.1143 16.0132 20.7543 16.0132Z" fill="white"/>
</svg>
