<svg width="751" height="751" viewBox="0 0 751 751" fill="none" xmlns="http://www.w3.org/2000/svg">
<path d="M625.52 375.188C625.52 512.688 513.02 625.188 375.52 625.188C238.02 625.188 125.52 512.688 125.52 375.188C125.52 237.688 238.02 125.188 375.52 125.188C513.02 125.188 625.52 237.688 625.52 375.188Z" fill="white"/>
<path d="M375.52 0.1875C360.52 0.1875 350.52 10.1875 350.52 25.1875V75.1875C350.52 90.1875 360.52 100.188 375.52 100.188C390.52 100.188 400.52 90.1875 400.52 75.1875V25.1875C400.52 10.1875 390.52 0.1875 375.52 0.1875Z" fill="white"/>
<path d="M375.52 650.188C360.52 650.188 350.52 660.187 350.52 675.188V725.188C350.52 740.188 360.52 750.188 375.52 750.188C390.52 750.188 400.52 740.188 400.52 725.188V675.188C400.52 660.187 390.52 650.188 375.52 650.188Z" fill="white"/>
<path d="M725.52 350.188H675.52C660.52 350.188 650.52 360.187 650.52 375.188C650.52 390.188 660.52 400.188 675.52 400.188H725.52C740.52 400.188 750.52 390.188 750.52 375.188C750.52 360.187 740.52 350.188 725.52 350.188Z" fill="white"/>
<path d="M75.5195 350.188H25.5195C10.5195 350.188 0.519531 360.187 0.519531 375.188C0.519531 390.188 10.5195 400.188 25.5195 400.188H75.5195C90.5195 400.188 100.52 390.188 100.52 375.188C100.52 360.187 90.5195 350.188 75.5195 350.188Z" fill="white"/>
<path d="M605.52 110.188L570.52 145.188C560.52 155.188 560.52 170.187 570.52 180.187C575.52 185.187 583.02 187.688 588.02 187.688C593.02 187.688 600.52 185.187 605.52 180.187L640.52 145.188C650.52 135.188 650.52 120.188 640.52 110.188C630.52 100.187 615.52 100.187 605.52 110.188Z" fill="white"/>
<path d="M145.52 570.188L110.52 605.188C100.52 615.188 100.52 630.188 110.52 640.188C115.52 645.188 123.02 647.688 128.02 647.688C133.02 647.688 140.52 645.188 145.52 640.188L180.52 605.188C190.52 595.188 190.52 580.188 180.52 570.188C170.52 560.188 155.52 560.188 145.52 570.188Z" fill="white"/>
<path d="M145.52 110.188C135.52 100.187 120.52 100.187 110.52 110.188C100.52 120.188 100.52 135.188 110.52 145.188L145.52 180.187C150.52 185.187 158.02 187.688 163.02 187.688C168.02 187.688 175.52 185.187 180.52 180.187C190.52 170.187 190.52 155.188 180.52 145.188L145.52 110.188Z" fill="white"/>
<path d="M605.52 570.188C595.52 560.188 580.52 560.188 570.52 570.188C560.52 580.188 560.52 595.188 570.52 605.188L605.52 640.188C610.52 645.188 618.02 647.688 623.02 647.688C628.02 647.688 635.52 645.188 640.52 640.188C650.52 630.188 650.52 615.188 640.52 605.188L605.52 570.188Z" fill="white"/>
</svg>
